<svg width="20" height="20" viewBox="0 0 20 20" fill="none" xmlns="http://www.w3.org/2000/svg">
<path fill-rule="evenodd" clip-rule="evenodd" d="M0.916664 9.99996C0.916664 4.98325 4.98328 0.916626 10 0.916626C15.0167 0.916626 19.0833 4.98325 19.0833 9.99996C19.0833 15.0167 15.0167 19.0833 10 19.0833C4.98328 19.0833 0.916664 15.0167 0.916664 9.99996ZM10 2.41663C5.81171 2.41663 2.41666 5.81167 2.41666 9.99996C2.41666 14.1882 5.81171 17.5833 10 17.5833C14.1883 17.5833 17.5833 14.1882 17.5833 9.99996C17.5833 5.81167 14.1883 2.41663 10 2.41663Z" fill="#838383"/>
<path fill-rule="evenodd" clip-rule="evenodd" d="M10.3797 1.11103C10.7096 0.860498 11.1801 0.92481 11.4306 1.25467L10.8333 1.70829C11.4306 1.25467 11.4304 1.25443 11.4306 1.25467L11.4314 1.25568L11.4324 1.25699L11.435 1.26053L11.443 1.27124C11.4495 1.27999 11.4583 1.29196 11.4692 1.3071C11.4911 1.33737 11.5216 1.38033 11.5595 1.43559C11.6352 1.54608 11.7405 1.70593 11.8654 1.91201C12.115 2.32394 12.444 2.92221 12.7719 3.68189C13.4272 5.19997 14.0833 7.37474 14.0833 9.99996C14.0833 12.6252 13.4272 14.8 12.7719 16.318C12.444 17.0777 12.115 17.676 11.8654 18.0879C11.7405 18.294 11.6352 18.4538 11.5595 18.5643C11.5216 18.6196 11.4911 18.6626 11.4692 18.6928C11.4583 18.708 11.4495 18.7199 11.443 18.7287L11.435 18.7394L11.4324 18.7429L11.4314 18.7442C11.4312 18.7445 11.4306 18.7452 10.8333 18.2916L11.4306 18.7452C11.1801 19.0751 10.7096 19.1394 10.3797 18.8889C10.0502 18.6386 9.98567 18.1688 10.2353 17.839C10.2354 17.8389 10.236 17.8381 10.2361 17.838L10.238 17.8354L10.2536 17.8141C10.2683 17.7937 10.2915 17.761 10.322 17.7165C10.3831 17.6275 10.4731 17.4911 10.5826 17.3105C10.8017 16.9489 11.0977 16.4118 11.3947 15.7236C11.9895 14.3458 12.5833 12.3747 12.5833 9.99996C12.5833 7.62518 11.9895 5.65412 11.3947 4.27636C11.0977 3.58813 10.8017 3.05098 10.5826 2.68947C10.4731 2.50884 10.3831 2.37246 10.322 2.28341C10.2915 2.2389 10.2683 2.20625 10.2536 2.18587L10.238 2.16454L10.2361 2.16191C10.236 2.16178 10.2362 2.16204 10.2361 2.16191L10.2353 2.16087C10.2351 2.16065 10.2351 2.1607 10.2353 2.16087M10.2353 2.16087L10.2361 2.16191ZM10.3797 1.11103C10.05 1.36145 9.98588 1.83207 10.2361 2.16191Z" fill="#838383"/>
<path fill-rule="evenodd" clip-rule="evenodd" d="M9.76423 2.16152L9.76199 2.16454L9.7464 2.18587C9.73167 2.20625 9.70845 2.2389 9.67795 2.28341C9.61694 2.37246 9.52691 2.50884 9.41744 2.68947C9.19834 3.05098 8.90233 3.58813 8.60525 4.27636C8.01054 5.65412 7.41666 7.62518 7.41666 9.99996C7.41666 12.3747 8.01054 14.3458 8.60525 15.7236C8.90233 16.4118 9.19834 16.9489 9.41744 17.3105C9.52691 17.4911 9.61694 17.6275 9.67795 17.7165C9.70845 17.761 9.73167 17.7937 9.7464 17.8141L9.76199 17.8354L9.76393 17.838C10.0141 18.1679 9.95002 18.6385 9.62028 18.8889C9.29042 19.1394 8.81992 19.0751 8.5694 18.7452L9.16666 18.2916C8.5694 18.7452 8.56958 18.7455 8.5694 18.7452L8.56764 18.7429L8.56498 18.7394L8.55699 18.7287C8.55051 18.7199 8.54171 18.708 8.53077 18.6928C8.50889 18.6626 8.4784 18.6196 8.44053 18.5643C8.36483 18.4538 8.25954 18.294 8.13464 18.0879C7.88499 17.676 7.556 17.0777 7.22808 16.318C6.57279 14.8 5.91666 12.6252 5.91666 9.99996C5.91666 7.37474 6.57279 5.19997 7.22808 3.68189C7.556 2.92221 7.88499 2.32394 8.13464 1.91201C8.25954 1.70593 8.36483 1.54608 8.44053 1.43559C8.4784 1.38033 8.50889 1.33737 8.53077 1.3071C8.54171 1.29196 8.55051 1.27999 8.55699 1.27124L8.56498 1.26053L8.56764 1.25699L8.56863 1.25568C8.56881 1.25544 8.56939 1.25468 9.15053 1.69604L8.5694 1.25467C8.81992 0.92481 9.29042 0.860498 9.62028 1.11103C9.94997 1.36142 10.0143 1.83169 9.76423 2.16152Z" fill="#838383"/>
<path fill-rule="evenodd" clip-rule="evenodd" d="M1.44167 12.9166C1.44167 12.5024 1.77745 12.1666 2.19167 12.1666H17.8083C18.2225 12.1666 18.5583 12.5024 18.5583 12.9166C18.5583 13.3308 18.2225 13.6666 17.8083 13.6666H2.19167C1.77745 13.6666 1.44167 13.3308 1.44167 12.9166Z" fill="#838383"/>
<path fill-rule="evenodd" clip-rule="evenodd" d="M1.44167 7.08325C1.44167 6.66904 1.77745 6.33325 2.19167 6.33325H17.8083C18.2225 6.33325 18.5583 6.66904 18.5583 7.08325C18.5583 7.49747 18.2225 7.83325 17.8083 7.83325H2.19167C1.77745 7.83325 1.44167 7.49747 1.44167 7.08325Z" fill="#838383"/>
</svg>
